<?xml version="1.0" encoding="utf-8"?>
<!-- Generator: Adobe Illustrator 19.2.1, SVG Export Plug-In . SVG Version: 6.00 Build 0)  -->
<svg version="1.1" id="Layer_1" xmlns="http://www.w3.org/2000/svg" xmlns:xlink="http://www.w3.org/1999/xlink" x="0px" y="0px"
	 viewBox="0 0 70 70" style="enable-background:new 0 0 70 70;" xml:space="preserve">
<style type="text/css">
	.st0{fill:#0086C0;}
</style>
<g>
	<g>
		<g>
			<path class="st0" d="M35,63c-0.3,0-0.6-0.1-0.8-0.4l-31-39c-0.3-0.3-0.3-0.8-0.1-1.1l9-15C12.3,7.2,12.6,7,13,7h44
				c0.4,0,0.7,0.2,0.9,0.5l9,15c0.2,0.4,0.2,0.8-0.1,1.1l-31,39C35.6,62.9,35.3,63,35,63z M5.2,22.9L35,60.4l29.8-37.5L56.4,9H13.6
				L5.2,22.9z"/>
		</g>
		<g>
			<rect x="4" y="22" class="st0" width="62" height="2"/>
		</g>
		<g>
			<rect x="42.2" y="14.5" transform="matrix(0.5916 -0.8063 0.8063 0.5916 8.5393 47.8547)" class="st0" width="18.6" height="2"/>
		</g>
		<g>
			<rect x="39.5" y="6.2" transform="matrix(0.8064 -0.5914 0.5914 0.8064 -1.3241 26.9522)" class="st0" width="2" height="18.6"/>
		</g>
		<g>
			
				<rect x="20.2" y="14.5" transform="matrix(0.5916 -0.8063 0.8063 0.5916 -0.4472 30.1166)" class="st0" width="18.6" height="2"/>
		</g>
		<g>
			<rect x="17.5" y="6.2" transform="matrix(0.8064 -0.5914 0.5914 0.8064 -5.5841 13.9419)" class="st0" width="2" height="18.6"/>
		</g>
		<g>
			
				<rect x="28.5" y="22.2" transform="matrix(0.9624 -0.2715 0.2715 0.9624 -10.4176 9.6005)" class="st0" width="2" height="40.5"/>
		</g>
		<g>
			
				<rect x="20.2" y="41.5" transform="matrix(0.2714 -0.9625 0.9625 0.2714 -11.4508 69.9697)" class="st0" width="40.5" height="2"/>
		</g>
	</g>
</g>
</svg>
