<?xml version="1.0" encoding="utf-8"?>
<!-- Generator: Adobe Illustrator 19.2.1, SVG Export Plug-In . SVG Version: 6.00 Build 0)  -->
<svg version="1.1" id="Layer_1" xmlns="http://www.w3.org/2000/svg" xmlns:xlink="http://www.w3.org/1999/xlink" x="0px" y="0px"
	 viewBox="0 0 70 70" style="enable-background:new 0 0 70 70;" xml:space="preserve">
<style type="text/css">
	.st0{fill:#0086C0;}
</style>
<g>
	<g>
		<g>
			<path class="st0" d="M23,55C12,55,3,46,3,35s9-20,20-20c7.8,0,14.9,4.6,18.2,11.6l-1.8,0.8C36.4,21.1,30,17,23,17
				c-9.9,0-18,8.1-18,18s8.1,18,18,18c6.9,0,13.3-4.1,16.3-10.3l1.8,0.9C37.8,50.5,30.7,55,23,55z"/>
		</g>
		<g>
			<path class="st0" d="M23,55c-7.7,0-14-9-14-20s6.3-20,14-20c7.7,0,14,9,14,20S30.7,55,23,55z M23,17c-6.6,0-12,8.1-12,18
				s5.4,18,12,18c6.6,0,12-8.1,12-18S29.6,17,23,17z"/>
		</g>
		<g>
			<path class="st0" d="M23,55c-5.2,0-8-10.3-8-20s2.8-20,8-20c5.2,0,8,10.3,8,20S28.2,55,23,55z M23,17c-2.8,0-6,7.4-6,18
				s3.2,18,6,18c2.8,0,6-7.4,6-18S25.8,17,23,17z"/>
		</g>
		<g>
			<rect x="22" y="16" class="st0" width="2" height="38"/>
		</g>
		<g>
			<rect x="9" y="21" class="st0" width="28" height="2"/>
		</g>
		<g>
			<rect x="8" y="46" class="st0" width="30" height="2"/>
		</g>
		<g>
			<rect x="4" y="34" class="st0" width="36" height="2"/>
		</g>
	</g>
	<g>
		<path class="st0" d="M47,55c-3.2,0-6.2-0.7-9.1-2.2l0.9-1.8c2.5,1.3,5.3,1.9,8.1,1.9c9.9,0,18-8.1,18-18s-8.1-18-18-18
			c-2.9,0-5.7,0.7-8.2,2l-0.9-1.8c2.8-1.5,5.9-2.2,9.1-2.2c11,0,20,9,20,20S58,55,47,55z"/>
	</g>
	<g>
		<g>
			<path class="st0" d="M47,44c-2.8,0-5-2.2-5-5h2c0,1.7,1.3,3,3,3c1.7,0,3-1.3,3-3c0-1.3-1.1-1.9-3-2.9l-1-0.5
				c-1.9-0.9-4.1-2-4.1-4.7c0-2.8,2.2-5,5-5c2.8,0,5,2.2,5,5h-2c0-1.7-1.3-3-3-3c-1.7,0-3,1.3-3,3c0,1.3,1.1,1.9,3,2.9l1,0.5
				c1.9,0.9,4.1,2,4.1,4.7C52,41.8,49.8,44,47,44z"/>
		</g>
		<g>
			<rect x="46" y="24" class="st0" width="2" height="3"/>
		</g>
		<g>
			<rect x="46" y="43" class="st0" width="2" height="3"/>
		</g>
	</g>
	<g>
		<rect x="54" y="34" class="st0" width="2" height="2"/>
	</g>
	<g>
		<rect x="54" y="30" class="st0" width="2" height="2"/>
	</g>
	<g>
		<rect x="54" y="38" class="st0" width="2" height="2"/>
	</g>
</g>
</svg>
