<?xml version="1.0" encoding="utf-8"?>
<!-- Generator: Adobe Illustrator 19.2.1, SVG Export Plug-In . SVG Version: 6.00 Build 0)  -->
<svg version="1.1" id="Layer_1" xmlns="http://www.w3.org/2000/svg" xmlns:xlink="http://www.w3.org/1999/xlink" x="0px" y="0px"
	 viewBox="0 0 70 70" style="enable-background:new 0 0 70 70;" xml:space="preserve">
<style type="text/css">
	.st0{fill:#0086C0;}
</style>
<g>
	<g>
		<polygon class="st0" points="42,36.2 35,22.2 29.9,32.4 28.1,31.6 35,17.8 43.8,35.3 		"/>
	</g>
	<g>
		<g>
			<rect x="16" y="24" class="st0" width="2" height="2"/>
		</g>
		<g>
			<rect x="11" y="21" class="st0" width="2" height="2"/>
		</g>
		<g>
			<rect x="6" y="18" class="st0" width="2" height="2"/>
		</g>
		<g>
			<rect x="24" y="16" class="st0" width="2" height="2"/>
		</g>
		<g>
			<rect x="21" y="11" class="st0" width="2" height="2"/>
		</g>
		<g>
			<rect x="18" y="6" class="st0" width="2" height="2"/>
		</g>
		<g>
			<rect x="34" y="8" class="st0" width="2" height="2"/>
		</g>
		<g>
			<rect x="34" y="13" class="st0" width="2" height="2"/>
		</g>
		<g>
			<rect x="34" y="3" class="st0" width="2" height="2"/>
		</g>
		<g>
			<rect x="52" y="24" class="st0" width="2" height="2"/>
		</g>
		<g>
			<rect x="57" y="21" class="st0" width="2" height="2"/>
		</g>
		<g>
			<rect x="62" y="18" class="st0" width="2" height="2"/>
		</g>
		<g>
			<rect x="44" y="16" class="st0" width="2" height="2"/>
		</g>
		<g>
			<rect x="47" y="11" class="st0" width="2" height="2"/>
		</g>
		<g>
			<rect x="50" y="6" class="st0" width="2" height="2"/>
		</g>
		<g>
			<rect x="8" y="34" class="st0" width="2" height="2"/>
		</g>
		<g>
			<rect x="13" y="34" class="st0" width="2" height="2"/>
		</g>
		<g>
			<rect x="3" y="34" class="st0" width="2" height="2"/>
		</g>
		<g>
			<rect x="11" y="47" class="st0" width="2" height="2"/>
		</g>
		<g>
			<rect x="6" y="50" class="st0" width="2" height="2"/>
		</g>
		<g>
			<rect x="60" y="34" class="st0" width="2" height="2"/>
		</g>
		<g>
			<rect x="55" y="34" class="st0" width="2" height="2"/>
		</g>
		<g>
			<rect x="65" y="34" class="st0" width="2" height="2"/>
		</g>
		<g>
			<rect x="57" y="47" class="st0" width="2" height="2"/>
		</g>
		<g>
			<rect x="62" y="50" class="st0" width="2" height="2"/>
		</g>
	</g>
	<g>
		<path class="st0" d="M35,53c-10.3,0-18.4-9-18.7-9.3L15.7,43l0.6-0.7C16.6,42,24.7,33,35,33s18.4,9,18.7,9.3l0.6,0.7l-0.6,0.7
			C53.4,44,45.3,53,35,53z M18.4,43c2.1,2,8.8,8,16.6,8s14.5-6,16.6-8c-2.1-2-8.8-8-16.6-8S20.5,41,18.4,43z"/>
	</g>
	<g>
		<path class="st0" d="M35,53c-5.5,0-10-4.5-10-10s4.5-10,10-10c5.5,0,10,4.5,10,10S40.5,53,35,53z M35,35c-4.4,0-8,3.6-8,8
			s3.6,8,8,8c4.4,0,8-3.6,8-8S39.4,35,35,35z"/>
	</g>
	<g>
		<path class="st0" d="M35,49c-3.3,0-6-2.7-6-6v-1.4l1.3,0.4c1.2,0.4,2.5-0.1,3.3-1.2c0.6-0.8,0.7-1.7,0.4-2.6L33.6,37H35
			c3.3,0,6,2.7,6,6S38.3,49,35,49z M31.2,44c0.5,2,2,2.9,3.8,2.9c2.2,0,4-1.7,4-4c0-1.8-1.2-3.3-2.8-3.8c0,1-0.3,1.9-0.9,2.8
			C34.3,43.3,32.8,44,31.2,44C31.2,44,31.2,44,31.2,44z"/>
	</g>
	<g>
		<polygon class="st0" points="55.4,67 14.6,67 11.8,64.2 20.6,46.5 22.4,47.4 14.2,63.8 15.4,65 54.6,65 55.8,63.8 49.1,50.4 
			50.9,49.6 58.2,64.2 		"/>
	</g>
	<g>
		<rect x="14" y="61" class="st0" width="42" height="2"/>
	</g>
	<g>
		<rect x="34" y="57" class="st0" width="2" height="2"/>
	</g>
	<g>
		<rect x="38" y="57" class="st0" width="2" height="2"/>
	</g>
	<g>
		<rect x="30" y="57" class="st0" width="2" height="2"/>
	</g>
</g>
</svg>
