<?xml version="1.0" encoding="utf-8"?>
<!-- Generator: Adobe Illustrator 21.0.0, SVG Export Plug-In . SVG Version: 6.00 Build 0)  -->
<svg version="1.1" id="Layer_1" xmlns="http://www.w3.org/2000/svg" xmlns:xlink="http://www.w3.org/1999/xlink" x="0px" y="0px"
	 viewBox="0 0 130.5 113.1" style="enable-background:new 0 0 130.5 113.1;" xml:space="preserve">
<style type="text/css">
	.st0{fill:#142144;}
	.st1{fill:#B62029;}
	.st2{fill:#346DA5;}
	.st3{fill:#1E4E87;}
	.st4{fill:#2168A3;}
	.st5{fill:#2E477F;}
	.st6{fill:#F05626;}
	.st7{fill:#4284BA;}
	.st8{fill:url(#SVGID_1_);}
	.st9{fill:url(#SVGID_2_);}
	.st10{fill:url(#SVGID_3_);}
	.st11{fill:url(#SVGID_4_);}
</style>
<g>
	<g>
		<path class="st0" d="M115,29.6L103.5,9.8L18.9,23.5L5.8,46.3L31,41.8C58.6,37.5,115,29.6,115,29.6z"/>
		<polygon class="st1" points="78.1,45.4 76.3,34.5 16.5,44.3 24.4,54.2 		"/>
		<polygon class="st2" points="114.3,28.4 6,45.9 0,56.6 5.8,67 125.6,48 		"/>
		<polygon class="st3" points="97.8,0 32.2,0 18.8,23.6 103.5,9.9 		"/>
		<polygon class="st4" points="59.2,78 16.1,84.8 26.8,103.3 61.7,97.7 		"/>
		<polygon class="st4" points="82.5,73.4 15.8,84.2 26.9,103.6 111.3,89.9 124.7,66.6 		"/>
		<polygon class="st5" points="26.8,103.3 32.5,113.2 65.4,113.1 64,97.4 		"/>
		<polygon class="st5" points="32.5,113.2 97.8,113.2 111.4,89.7 57,98.5 		"/>
		<polygon class="st6" points="51.8,65.2 53.9,78.7 82.7,74.1 80.5,60.6 		"/>
		<polygon class="st7" points="124.9,47 96.1,51.6 99.3,71.4 124.3,67.3 130.5,56.6 		"/>
		<polygon class="st7" points="108.9,49.6 5.4,66.2 16.1,84.8 124.3,67.4 		"/>
	</g>
</g>
<g>
	<linearGradient id="SVGID_1_" gradientUnits="userSpaceOnUse" x1="82.3411" y1="28.4114" x2="36.885" y2="28.4114">
		<stop  offset="0" style="stop-color:#CA2228"/>
		<stop  offset="0.166" style="stop-color:#C42127"/>
		<stop  offset="0.3903" style="stop-color:#B31E23"/>
		<stop  offset="0.6479" style="stop-color:#96191C"/>
		<stop  offset="0.9284" style="stop-color:#6F1314"/>
		<stop  offset="1" style="stop-color:#641111"/>
	</linearGradient>
	<path class="st8" d="M72.5,18.9H45.4c-4.2,0-7.6,3.4-7.6,7.6v11.4c0-4.8,4.1-8.6,9.1-8.6c4.1,0,31.9,0,36,0
		C82.9,23.5,78.3,18.9,72.5,18.9z"/>
	<linearGradient id="SVGID_2_" gradientUnits="userSpaceOnUse" x1="82.2648" y1="82.7564" x2="82.2648" y2="19.429">
		<stop  offset="0" style="stop-color:#F7E346"/>
		<stop  offset="0.1918" style="stop-color:#F4DB47"/>
		<stop  offset="0.4818" style="stop-color:#ECC748"/>
		<stop  offset="0.8323" style="stop-color:#DEA54B"/>
		<stop  offset="1" style="stop-color:#D7924D"/>
	</linearGradient>
	<path class="st9" d="M84.4,18.9H73h-0.5c5.7,0,10.4,4.6,10.4,10.4v56.1c5,0,9.1-4.7,9.1-10.5V26.5C92,22.3,88.6,18.9,84.4,18.9z"/>
	<linearGradient id="SVGID_3_" gradientUnits="userSpaceOnUse" x1="47.5629" y1="31.2023" x2="47.5629" y2="95.2416">
		<stop  offset="0" style="stop-color:#F7E346"/>
		<stop  offset="0.119" style="stop-color:#F5DB45"/>
		<stop  offset="0.2991" style="stop-color:#F0C744"/>
		<stop  offset="0.5178" style="stop-color:#E7A441"/>
		<stop  offset="0.7645" style="stop-color:#DA763D"/>
		<stop  offset="1" style="stop-color:#CD4239"/>
	</linearGradient>
	<path class="st10" d="M46.9,29.3v56.1c0,5.7,4.6,10.4,10.4,10.4H45.4c-4.2,0-7.6-3.4-7.6-7.6V37.9C37.8,33.1,41.9,29.3,46.9,29.3z"
		/>
	<linearGradient id="SVGID_4_" gradientUnits="userSpaceOnUse" x1="46.9272" y1="85.3642" x2="92.0171" y2="85.3642">
		<stop  offset="0" style="stop-color:#F7E346"/>
		<stop  offset="0.119" style="stop-color:#F5DB45"/>
		<stop  offset="0.2991" style="stop-color:#F0C744"/>
		<stop  offset="0.5178" style="stop-color:#E7A441"/>
		<stop  offset="0.7645" style="stop-color:#DA763D"/>
		<stop  offset="1" style="stop-color:#CD4239"/>
	</linearGradient>
	<path class="st11" d="M82.9,85.4h-36c0,5.7,4.6,10.4,10.4,10.4h27.1c4.2,0,7.6-3.4,7.6-7.6V74.9C92,80.7,87.9,85.4,82.9,85.4z
		 M69.3,92.5h-8.8c-1.1,0-2-0.9-2-2c0-1.1,0.9-2,2-2h8.8c1.1,0,2,0.9,2,2C71.4,91.6,70.5,92.5,69.3,92.5z"/>
</g>
</svg>
