<?xml version="1.0" encoding="utf-8"?>
<!-- Generator: Adobe Illustrator 19.2.1, SVG Export Plug-In . SVG Version: 6.00 Build 0)  -->
<svg version="1.1" id="Layer_1" xmlns="http://www.w3.org/2000/svg" xmlns:xlink="http://www.w3.org/1999/xlink" x="0px" y="0px"
	 viewBox="0 0 70 70" style="enable-background:new 0 0 70 70;" xml:space="preserve">
<style type="text/css">
	.st0{fill:#0085BD;}
</style>
<g>
	<g>
		<g>
			<g>
				<path class="st0" d="M34,34H21v-2.6l0.5-0.3c1.6-0.9,2.5-2.4,2.5-4.1c0-2.8-2.2-5-5-5s-5,2.2-5,5c0,1.7,0.9,3.2,2.5,4.1l0.5,0.3
					V34H3V7c0-2.2,1.8-4,4-4h27v2H7C5.9,5,5,5.9,5,7v25h9.3c-1.5-1.3-2.3-3-2.3-5c0-3.9,3.1-7,7-7s7,3.1,7,7c0,2-0.8,3.7-2.3,5H34
					V34z"/>
			</g>
		</g>
		<g>
			<g>
				<path class="st0" d="M34,67H7c-2.2,0-4-1.8-4-4V36h2v27c0,1.1,0.9,2,2,2h25v-9.3c-1.3,1.5-3,2.3-5,2.3c-3.9,0-7-3.1-7-7
					s3.1-7,7-7c2,0,3.7,0.8,5,2.3V36h2v13h-2.6l-0.3-0.5C30.2,46.9,28.7,46,27,46c-2.8,0-5,2.2-5,5s2.2,5,5,5c1.7,0,3.2-0.9,4.1-2.5
					l0.3-0.5H34V67z"/>
			</g>
		</g>
		<g>
			<g>
				<path class="st0" d="M63,67H36v-2h27c1.1,0,2-0.9,2-2V38h-9.2c1.4,1.2,2.2,3,2.2,5c0,3.9-3.1,7-7,7s-7-3.1-7-7
					c0-2,0.8-3.8,2.2-5H36v-2h13v2.6l-0.5,0.3C46.8,39.7,46,41.1,46,43c0,2.8,2.2,5,5,5s5-2.2,5-5c0-1.9-0.8-3.3-2.5-4.1L53,38.6V36
					h14v27C67,65.2,65.2,67,63,67z"/>
			</g>
		</g>
		<g>
			<g>
				<path class="st0" d="M67,34h-2V7c0-1.1-0.9-2-2-2H38v9.3c1.3-1.5,3-2.3,5-2.3c3.9,0,7,3.1,7,7s-3.1,7-7,7c-2,0-3.7-0.8-5-2.3V34
					h-2V21h2.6l0.3,0.5c0.9,1.6,2.4,2.5,4.1,2.5c2.8,0,5-2.2,5-5s-2.2-5-5-5c-1.7,0-3.2,0.9-4.1,2.5L38.6,17H36V3h27
					c2.2,0,4,1.8,4,4V34z"/>
			</g>
		</g>
	</g>
	<g>
		<rect x="32" y="7" class="st0" width="2" height="2"/>
	</g>
	<g>
		<rect x="28" y="7" class="st0" width="2" height="2"/>
	</g>
	<g>
		<rect x="24" y="7" class="st0" width="2" height="2"/>
	</g>
	<g>
		<rect x="44" y="61" class="st0" width="2" height="2"/>
	</g>
	<g>
		<rect x="40" y="61" class="st0" width="2" height="2"/>
	</g>
	<g>
		<rect x="36" y="61" class="st0" width="2" height="2"/>
	</g>
	<g>
		<rect x="7" y="36" class="st0" width="2" height="2"/>
	</g>
	<g>
		<rect x="7" y="40" class="st0" width="2" height="2"/>
	</g>
	<g>
		<rect x="7" y="44" class="st0" width="2" height="2"/>
	</g>
	<g>
		<rect x="61" y="24" class="st0" width="2" height="2"/>
	</g>
	<g>
		<rect x="61" y="28" class="st0" width="2" height="2"/>
	</g>
	<g>
		<rect x="61" y="32" class="st0" width="2" height="2"/>
	</g>
</g>
</svg>
