<?xml version="1.0" encoding="utf-8"?>
<!-- Generator: Adobe Illustrator 19.2.1, SVG Export Plug-In . SVG Version: 6.00 Build 0)  -->
<svg version="1.1" id="Layer_1" xmlns="http://www.w3.org/2000/svg" xmlns:xlink="http://www.w3.org/1999/xlink" x="0px" y="0px"
	 viewBox="0 0 70 70" style="enable-background:new 0 0 70 70;" xml:space="preserve">
<style type="text/css">
	.st0{fill:#0085BD;}
	.st1{fill:#0085BD;stroke:#374041;stroke-width:2;stroke-miterlimit:10;}
</style>
<g>
	<g>
		<g>
			<g>
				<path class="st0" d="M56,36c-3.4,0-6-3.2-6-7.5c0-3,0.7-6.5,6-6.5s6,3.5,6,6.5C62,32.8,59.4,36,56,36z M56,24c-3,0-4,1.1-4,4.5
					c0,2.7,1.4,5.5,4,5.5s4-2.8,4-5.5C60,25.1,59,24,56,24z"/>
			</g>
			<g>
				
					<rect x="47.6" y="34.5" transform="matrix(0.8574 -0.5146 0.5146 0.8574 -11.0688 31.0486)" class="st0" width="5.8" height="2"/>
			</g>
			<g>
				<path class="st0" d="M64,44h-6v-2h6c0.3,0,1-0.8,1-2v-1.4l-6.5-3.7l1-1.7l7.5,4.3V40C67,42.2,65.6,44,64,44z"/>
			</g>
		</g>
		<g>
			<g>
				<path class="st0" d="M14,36c-3.4,0-6-3.2-6-7.5c0-3,0.7-6.5,6-6.5s6,3.5,6,6.5C20,32.8,17.4,36,14,36z M14,24c-3,0-4,1.1-4,4.5
					c0,2.7,1.4,5.5,4,5.5s4-2.8,4-5.5C18,25.1,17,24,14,24z"/>
			</g>
			<g>
				
					<rect x="18.5" y="32.6" transform="matrix(0.5145 -0.8575 0.8575 0.5145 -20.9735 33.9568)" class="st0" width="2" height="5.8"/>
			</g>
			<g>
				<path class="st0" d="M12,44H6c-1.6,0-3-1.8-3-4v-2.6l7.5-4.3l1,1.7L5,38.6V40c0,1.2,0.7,2,1,2h6V44z"/>
			</g>
		</g>
		<g>
			<g>
				<g>
					<path class="st1" d="M42,39"/>
				</g>
				<g>
					<path class="st0" d="M14,61h-2v-9c0-8,4.4-9.7,9.2-11.5c1.7-0.7,3.5-1.3,5.4-2.4l1,1.7c-1.9,1.1-3.9,1.9-5.6,2.5
						c-4.7,1.8-7.9,3-7.9,9.6V61H14z"/>
				</g>
				<g>
					<path class="st0" d="M58,61h-2v-9c0-6.6-3.1-7.8-7.9-9.6c-1.7-0.7-3.7-1.4-5.6-2.5l1-1.7c1.8,1,3.6,1.7,5.4,2.4
						C53.6,42.3,58,44,58,52V61z"/>
				</g>
				<g>
					<path class="st0" d="M39.2,44.2L35,42.1l-4.2,2.1l-5.1-5.1l2.8-4.2L35,36l6.5-1.1l2.8,4.2L39.2,44.2z M35,39.9l3.8,1.9l2.9-2.9
						l-1.2-1.8L35,38l-5.5-0.9l-1.2,1.8l2.9,2.9L35,39.9z"/>
				</g>
				<g>
					<rect x="39" y="32" class="st0" width="2" height="4"/>
				</g>
				<g>
					<rect x="29" y="32" class="st0" width="2" height="4"/>
				</g>
				<g>
					<rect x="34" y="49" class="st0" width="2" height="2"/>
				</g>
				<g>
					<rect x="34" y="45" class="st0" width="2" height="2"/>
				</g>
				<g>
					<g>
						<path class="st0" d="M35,34c-0.1,0-3.3,0-5.4-1.1l-0.1-0.1c-0.1-0.1-3.4-2.3-4.4-9.7V23v-4h2v3.9c0.9,5.9,3.2,8,3.5,8.2
							C32.3,32,35,32,35,32s2.7,0,4.5-0.9c0.3-0.3,2.7-2.3,3.5-8.2V19h2v4.1c-1.1,7.4-4.3,9.6-4.4,9.7l-0.1,0.1
							C38.3,34,35.1,34,35,34z"/>
					</g>
					<g>
						<path class="st0" d="M45,19h-2c0-5.5-2.5-8-8-8s-8,2.5-8,8h-2c0-6.6,3.4-10,10-10S45,12.4,45,19z"/>
					</g>
					<g>
						<polygon class="st0" points="40,22.1 30,18.1 26.4,19.9 25.6,18.1 30,15.9 40,19.9 43.6,18.1 44.4,19.9 						"/>
					</g>
				</g>
			</g>
			<g>
				<rect x="20" y="53" class="st0" width="2" height="8"/>
			</g>
			<g>
				<rect x="48" y="53" class="st0" width="2" height="8"/>
			</g>
		</g>
	</g>
</g>
</svg>
