<?xml version="1.0" encoding="utf-8"?>
<!-- Generator: Adobe Illustrator 19.2.1, SVG Export Plug-In . SVG Version: 6.00 Build 0)  -->
<svg version="1.1" id="Layer_1" xmlns="http://www.w3.org/2000/svg" xmlns:xlink="http://www.w3.org/1999/xlink" x="0px" y="0px"
	 viewBox="0 0 70 70" style="enable-background:new 0 0 70 70;" xml:space="preserve">
<style type="text/css">
	.st0{fill:#0085BD;}
</style>
<g>
	<g>
		<rect x="42" y="39" class="st0" width="2" height="2"/>
	</g>
	<g>
		<rect x="38" y="43" class="st0" width="2" height="2"/>
	</g>
	<g>
		<rect x="46" y="35" class="st0" width="2" height="2"/>
	</g>
	<g>
		<rect x="50" y="31" class="st0" width="2" height="2"/>
	</g>
	<g>
		<rect x="18" y="37" class="st0" width="2" height="2"/>
	</g>
	<g>
		<rect x="22" y="33" class="st0" width="2" height="2"/>
	</g>
	<g>
		<rect x="26" y="29" class="st0" width="2" height="2"/>
	</g>
	<g>
		<rect x="30" y="25" class="st0" width="2" height="2"/>
	</g>
	<g>
		<path class="st0" d="M34,54H4c-0.6,0-1-0.4-1-1V23c0-0.4,0.2-0.8,0.6-0.9C4,21.9,4.4,22,4.7,22.3l9.3,9.3L38.6,7H8
			c-1.7,0-3,1.3-3,3v10H3V10c0-2.8,2.2-5,5-5h33c0.4,0,0.8,0.2,0.9,0.6C42.1,6,42,6.4,41.7,6.7l-27,27c-0.4,0.4-1,0.4-1.4,0L5,25.4
			V52h26.6l-8.3-8.3c-0.4-0.4-0.4-1,0-1.4L38.6,27l-7.3-7.3l1.4-1.4l8,8c0.4,0.4,0.4,1,0,1.4L25.4,43l9.3,9.3
			c0.3,0.3,0.4,0.7,0.2,1.1C34.8,53.8,34.4,54,34,54z"/>
	</g>
	<g>
		<path class="st0" d="M26,65H8c-2.8,0-5-2.2-5-5v-4h2v4c0,1.7,1.3,3,3,3h18V65z"/>
	</g>
	<g>
		<path class="st0" d="M62,65H29c-0.4,0-0.8-0.2-0.9-0.6c-0.2-0.4-0.1-0.8,0.2-1.1l27-27c0.4-0.4,1-0.4,1.4,0l8.3,8.3V18H38.4
			l8.3,8.3c0.4,0.4,0.4,1,0,1.4L31.4,43l7.3,7.3l-1.4,1.4l-8-8c-0.4-0.4-0.4-1,0-1.4L44.6,27l-9.3-9.3c-0.3-0.3-0.4-0.7-0.2-1.1
			c0.2-0.4,0.5-0.6,0.9-0.6h30c0.6,0,1,0.4,1,1v30c0,0.4-0.2,0.8-0.6,0.9c-0.4,0.2-0.8,0.1-1.1-0.2L56,38.4L31.4,63H62
			c1.7,0,3-1.3,3-3V50h2v10C67,62.8,64.8,65,62,65z"/>
	</g>
	<g>
		<path class="st0" d="M67,14h-2v-4c0-1.7-1.3-3-3-3H44V5h18c2.8,0,5,2.2,5,5V14z"/>
	</g>
</g>
</svg>
