<?xml version="1.0" encoding="utf-8"?>
<!-- Generator: Adobe Illustrator 19.2.1, SVG Export Plug-In . SVG Version: 6.00 Build 0)  -->
<svg version="1.1" id="Layer_1" xmlns="http://www.w3.org/2000/svg" xmlns:xlink="http://www.w3.org/1999/xlink" x="0px" y="0px"
	 viewBox="0 0 70 70" style="enable-background:new 0 0 70 70;" xml:space="preserve">
<style type="text/css">
	.st0{fill:#0085BD;}
</style>
<g>
	<g>
		<g>
			<path class="st0" d="M66,63H42v-2h22.3L45.1,27.5l1.7-1l20,35c0.2,0.3,0.2,0.7,0,1C66.7,62.8,66.4,63,66,63z"/>
		</g>
		<g>
			<path class="st0" d="M28,63H4c-0.4,0-0.7-0.2-0.9-0.5c-0.2-0.3-0.2-0.7,0-1l20-35l1.7,1L5.7,61H28V63z"/>
		</g>
		<g>
			<rect x="42" y="53" class="st0" width="19" height="2"/>
		</g>
		<g>
			<rect x="9" y="53" class="st0" width="19" height="2"/>
		</g>
		<g>
			<rect x="42" y="45" class="st0" width="15" height="2"/>
		</g>
		<g>
			<rect x="13" y="45" class="st0" width="15" height="2"/>
		</g>
		<g>
			<rect x="42" y="37" class="st0" width="10" height="2"/>
		</g>
		<g>
			<rect x="18" y="37" class="st0" width="10" height="2"/>
		</g>
		<g>
			<rect x="42" y="29" class="st0" width="6" height="2"/>
		</g>
		<g>
			<rect x="22" y="29" class="st0" width="6" height="2"/>
		</g>
		<g>
			<path class="st0" d="M40,63h-2V24c0-0.6,0.4-1,1-1h3.3L35,10l-7.3,13H31c0.6,0,1,0.4,1,1v39h-2V25h-4c-0.4,0-0.7-0.2-0.9-0.5
				c-0.2-0.3-0.2-0.7,0-1l9-16c0.4-0.6,1.4-0.6,1.7,0l9,16c0.2,0.3,0.2,0.7,0,1C44.7,24.8,44.4,25,44,25h-4V63z"/>
		</g>
		<g>
			<rect x="34" y="61" class="st0" width="2" height="2"/>
		</g>
		<g>
			<rect x="34" y="53" class="st0" width="2" height="2"/>
		</g>
		<g>
			<rect x="34" y="45" class="st0" width="2" height="2"/>
		</g>
		<g>
			<rect x="34" y="37" class="st0" width="2" height="2"/>
		</g>
		<g>
			<rect x="34" y="29" class="st0" width="2" height="2"/>
		</g>
	</g>
</g>
</svg>
