<?xml version="1.0" encoding="utf-8"?>
<!-- Generator: Adobe Illustrator 19.2.1, SVG Export Plug-In . SVG Version: 6.00 Build 0)  -->
<svg version="1.1" id="Layer_1" xmlns="http://www.w3.org/2000/svg" xmlns:xlink="http://www.w3.org/1999/xlink" x="0px" y="0px"
	 viewBox="0 0 70 70" style="enable-background:new 0 0 70 70;" xml:space="preserve">
<style type="text/css">
	.st0{fill:#0085BD;}
	.st1{fill:none;stroke:#363F40;stroke-width:2;stroke-linecap:round;stroke-miterlimit:10;}
</style>
<g>
	<g>
		<g>
			<g>
				<rect x="25" y="21" class="st0" width="20" height="2"/>
			</g>
			<g>
				<path class="st0" d="M51,46c-0.3,0-0.5-0.1-0.7-0.3c-0.4-0.4-0.4-1,0-1.4l3.7-3.7v-2l3.3-3.3c0.4-0.4,1-0.4,1.4,0
					c0.4,0.4,0.4,1,0,1.4L56,39.4v2l-4.3,4.3C51.5,45.9,51.3,46,51,46z"/>
			</g>
			<g>
				<path class="st0" d="M47,58c-1.4,0-2.6-1.2-2.7-1.3l-11-11c-0.4-0.4-0.4-1,0-1.4c0.4-0.4,1-0.4,1.4,0l11,11
					C46,55.6,46.6,56,47,56c1.1,0,2-0.9,2-2c0-0.4-0.4-1-0.7-1.3l-11-11c-0.4-0.4-0.4-1,0-1.4c0.4-0.4,1-0.4,1.4,0l11,11
					c0.1,0.1,1.3,1.3,1.3,2.7C51,56.2,49.2,58,47,58z"/>
			</g>
			<g>
				<path class="st0" d="M42,61c-1.4,0-2.6-1.2-2.7-1.3l-10-10c-0.4-0.4-0.4-1,0-1.4c0.4-0.4,1-0.4,1.4,0l10,10
					C41,58.6,41.6,59,42,59c1.1,0,2-0.9,2-2c0-0.4-0.4-1-0.7-1.3c-0.4-0.4-0.4-1,0-1.4c0.4-0.4,1-0.4,1.4,0c0.1,0.1,1.3,1.3,1.3,2.7
					C46,59.2,44.2,61,42,61z"/>
			</g>
			<g>
				<path class="st0" d="M36,63c-1.4,0-2.6-1.2-2.7-1.3L15,43.4v-3l-3.7-3.7c-0.4-0.4-0.4-1,0-1.4c0.4-0.4,1-0.4,1.4,0l4.3,4.3v3
					l17.7,17.7C35,60.6,35.6,61,36,61c1.1,0,2-0.9,2-2c0-0.4-0.4-1-0.7-1.3c-0.4-0.4-0.4-1,0-1.4c0.4-0.4,1-0.4,1.4,0
					c0.1,0.1,1.3,1.3,1.3,2.7C40,61.2,38.2,63,36,63z"/>
			</g>
			<g>
				<path class="st0" d="M19,51c-2.2,0-4-1.8-4-4c0-1.4,1.2-2.6,1.3-2.7c0.4-0.4,1-0.4,1.4,0c0.4,0.4,0.4,1,0,1.4
					C17.4,46,17,46.6,17,47c0,1.1,0.9,2,2,2c0.4,0,1-0.4,1.3-0.7c0.4-0.4,1-0.4,1.4,0c0.4,0.4,0.4,1,0,1.4C21.6,49.8,20.4,51,19,51z
					"/>
			</g>
			<g>
				<path class="st0" d="M23,55c-2.2,0-4-1.8-4-4c0-1.4,1.2-2.6,1.3-2.7c0.4-0.4,1-0.4,1.4,0c0.4,0.4,0.4,1,0,1.4
					C21.4,50,21,50.6,21,51c0,1.1,0.9,2,2,2c0.4,0,1-0.4,1.3-0.7c0.4-0.4,1-0.4,1.4,0c0.4,0.4,0.4,1,0,1.4C25.6,53.8,24.4,55,23,55z
					"/>
			</g>
			<g>
				<path class="st0" d="M27,59c-2.2,0-4-1.8-4-4c0-1.4,1.2-2.6,1.3-2.7c0.4-0.4,1-0.4,1.4,0c0.4,0.4,0.4,1,0,1.4
					C25.4,54,25,54.6,25,55c0,1.1,0.9,2,2,2c0.4,0,1-0.4,1.3-0.7c0.4-0.4,1-0.4,1.4,0c0.4,0.4,0.4,1,0,1.4C29.6,57.8,28.4,59,27,59z
					"/>
			</g>
			<g>
				<path class="st0" d="M31,63c-2.2,0-4-1.8-4-4c0-1.4,1.2-2.6,1.3-2.7c0.4-0.4,1-0.4,1.4,0c0.4,0.4,0.4,1,0,1.4
					C29.4,58,29,58.6,29,59c0,1.1,0.9,2,2,2c0.4,0,1-0.4,1.3-0.7c0.4-0.4,1-0.4,1.4,0c0.4,0.4,0.4,1,0,1.4C33.6,61.8,32.4,63,31,63z
					"/>
			</g>
			<g>
				<path class="st0" d="M49,52c-1.4,0-2.6-1.2-2.7-1.3c-0.4-0.4-0.4-1,0-1.4c0.4-0.4,1-0.4,1.4,0C48,49.6,48.6,50,49,50
					c1.1,0,2-0.9,2-2c0-0.4-0.4-1-0.7-1.3L37,33.4V28h-1.6l-4.7,4.7C30.6,32.8,29.4,34,28,34c-2.2,0-4-1.8-4-4
					c0-1.4,1.2-2.6,1.3-2.7l6-6c0.4-0.4,1-0.4,1.4,0c0.4,0.4,0.4,1,0,1.4l-6,6C26.4,29,26,29.6,26,30c0,1.1,0.9,2,2,2
					c0.4,0,1-0.4,1.3-0.7l5.3-5.3H39v6.6l12.7,12.7c0.1,0.1,1.3,1.3,1.3,2.7C53,50.2,51.2,52,49,52z"/>
			</g>
			<g>
				<path class="st0" d="M43,36h-3v-2h3c1.1,0,2-0.9,2-2h2C47,34.2,45.2,36,43,36z"/>
			</g>
			<g>
				<path class="st0" d="M61,37h-2c-0.3,0-0.5-0.1-0.7-0.3l-16-16C42.1,20.5,42,20.3,42,20v-2c0-0.3,0.1-0.5,0.3-0.7l10-10
					c0.4-0.4,1-0.4,1.4,0c0.4,0.4,0.4,1,0,1.4L44,18.4v1.2L59.4,35h1.2l4.7-4.7c0.4-0.4,1-0.4,1.4,0c0.4,0.4,0.4,1,0,1.4l-5,5
					C61.5,36.9,61.3,37,61,37z"/>
			</g>
			<g>
				<path class="st0" d="M11,37H9c-0.3,0-0.5-0.1-0.7-0.3l-5-5c-0.4-0.4-0.4-1,0-1.4c0.4-0.4,1-0.4,1.4,0L9.4,35h1.2L26,19.6v-1.2
					l-9.7-9.7c-0.4-0.4-0.4-1,0-1.4c0.4-0.4,1-0.4,1.4,0l10,10c0.2,0.2,0.3,0.4,0.3,0.7v2c0,0.3-0.1,0.5-0.3,0.7l-16,16
					C11.5,36.9,11.3,37,11,37z"/>
			</g>
			<g>
				<path class="st0" d="M60,30c-0.3,0-0.5-0.1-0.7-0.3c-0.4-0.4-0.4-1,0-1.4l2-2c0.4-0.4,1-0.4,1.4,0c0.4,0.4,0.4,1,0,1.4l-2,2
					C60.5,29.9,60.3,30,60,30z"/>
			</g>
			<g>
				<path class="st0" d="M10,30c-0.3,0-0.5-0.1-0.7-0.3l-2-2c-0.4-0.4-0.4-1,0-1.4c0.4-0.4,1-0.4,1.4,0l2,2c0.4,0.4,0.4,1,0,1.4
					C10.5,29.9,10.3,30,10,30z"/>
			</g>
		</g>
		<g>
			<path class="st1" d="M31,48"/>
		</g>
		<g>
			<path class="st1" d="M29,50"/>
		</g>
	</g>
</g>
</svg>
