<?xml version="1.0" encoding="utf-8"?>
<!-- Generator: Adobe Illustrator 19.2.1, SVG Export Plug-In . SVG Version: 6.00 Build 0)  -->
<svg version="1.1" id="Layer_1" xmlns="http://www.w3.org/2000/svg" xmlns:xlink="http://www.w3.org/1999/xlink" x="0px" y="0px"
	 viewBox="0 0 70 70" style="enable-background:new 0 0 70 70;" xml:space="preserve">
<style type="text/css">
	.st0{fill:#0085BD;}
</style>
<g>
	<g>
		<g>
			<g>
				<g>
					<path class="st0" d="M11.9,54.4l-1.8-0.9c0.1-0.3,3.3-6.5,8.7-7.5l6.8-2c1.1-0.5,2.3-1.5,2.3-2.1v-5h2v5c0,2.2-3,3.6-3.6,3.9
						c0,0-0.1,0-0.1,0l-7,2C14.7,48.9,11.9,54.4,11.9,54.4z"/>
				</g>
				<g>
					<path class="st0" d="M58.1,54.4c0-0.1-2.9-5.6-7.3-6.5l-7.1-2c0,0-0.1,0-0.1,0C43,45.6,40,44.2,40,42v-5h2v5
						c0,0.6,1.4,1.6,2.3,2.1l6.9,2c5.3,1.1,8.5,7.3,8.6,7.5L58.1,54.4z"/>
				</g>
				<g>
					<path class="st0" d="M35,41c-6.9,0-10-7.8-10-15v-3c0-1.9,1.3-3.4,3-3.9V17c0-0.3,0.2-0.7,0.5-0.9c0.3-0.2,0.7-0.2,1,0l5.8,2.9
						H41c2.2,0,4,1.8,4,4v3C45,33.2,41.9,41,35,41z M30,18.6V20c0,0.6-0.4,1-1,1c-1.1,0-2,0.9-2,2v3c0,6.3,2.5,13,8,13
						c5.5,0,8-6.7,8-13v-3c0-1.1-0.9-2-2-2h-6c-0.2,0-0.3,0-0.4-0.1L30,18.6z"/>
				</g>
				<g>
					<path class="st0" d="M37,50h-4c-0.3,0-0.5-0.1-0.7-0.3L28.6,46H26v-2h3c0.3,0,0.5,0.1,0.7,0.3l3.7,3.7h3.2l3.7-3.7
						c0.2-0.2,0.4-0.3,0.7-0.3h3v2h-2.6l-3.7,3.7C37.5,49.9,37.3,50,37,50z"/>
				</g>
				<g>
					<rect x="34" y="57" class="st0" width="2" height="2"/>
				</g>
				<g>
					<rect x="34" y="53" class="st0" width="2" height="2"/>
				</g>
				<g>
					<rect x="34" y="61" class="st0" width="2" height="2"/>
				</g>
				<g>
					<rect x="40" y="55" class="st0" width="8" height="2"/>
				</g>
				<g>
					<path class="st0" d="M49,21h-2v-1c0-4.6-3.5-8.4-8-8.9V12c0,0.3-0.2,0.6-0.4,0.8c-0.3,0.2-0.6,0.2-0.9,0.1L31.8,11
						C27,11.1,23,15.1,23,20v1h-2v-1c0-6.1,4.9-11,11-11c0.1,0,0.2,0,0.3,0.1l4.7,1.6V10c0-0.6,0.4-1,1-1c6.1,0,11,4.9,11,11V21z"/>
				</g>
			</g>
			<g>
				<path class="st0" d="M25,33c-3.9,0-7-3.1-7-7s3.1-7,7-7v2c-2.8,0-5,2.2-5,5s2.2,5,5,5V33z"/>
			</g>
			<g>
				<path class="st0" d="M45,33v-2c2.8,0,5-2.2,5-5s-2.2-5-5-5v-2c3.9,0,7,3.1,7,7S48.9,33,45,33z"/>
			</g>
			<g>
				<path class="st0" d="M47,37H36c-1.7,0-3-1.3-3-3h2c0,0.6,0.4,1,1,1h11c0.6,0,1-0.4,1-1v-4h2v4C50,35.7,48.7,37,47,37z"/>
			</g>
		</g>
		<g>
			<path class="st0" d="M35,67C17.4,67,3,52.6,3,35S17.4,3,35,3s32,14.4,32,32S52.6,67,35,67z M35,5C18.5,5,5,18.5,5,35
				s13.5,30,30,30s30-13.5,30-30S51.5,5,35,5z"/>
		</g>
	</g>
</g>
</svg>
