<?xml version="1.0" encoding="utf-8"?>
<!-- Generator: Adobe Illustrator 19.2.1, SVG Export Plug-In . SVG Version: 6.00 Build 0)  -->
<svg version="1.1" id="Layer_1" xmlns="http://www.w3.org/2000/svg" xmlns:xlink="http://www.w3.org/1999/xlink" x="0px" y="0px"
	 viewBox="0 0 70 70" style="enable-background:new 0 0 70 70;" xml:space="preserve">
<style type="text/css">
	.st0{fill:#0085BD;}
</style>
<g>
	<g>
		<g>
			<path class="st0" d="M35,67C17.4,67,3,52.6,3,35S17.4,3,35,3c8.5,0,16.5,3.2,22.5,8.9C63.6,17.7,67,25.6,67,34l-2,0
				c0-7.9-3.1-15.2-8.9-20.6C50.4,8,43,5,35,5C18.5,5,5,18.5,5,35s13.5,30,30,30c8,0,15.4-3,21.1-8.3C61.9,51.2,65,43.9,65,36l2,0
				c0,8.4-3.4,16.3-9.5,22.1C51.5,63.8,43.5,67,35,67z"/>
		</g>
		<g>
			<path class="st0" d="M35,61C21,61,9.6,50,9,36l2-0.1c0.5,12.9,11,23,24,23c13.2,0,24-10.8,24-24S48.2,11,35,11
				c-12.9,0-23.5,10.1-24,23L9,34C9.6,20,21,9,35,9c14.3,0,26,11.7,26,26S49.3,61,35,61z"/>
		</g>
		<g>
			<path class="st0" d="M36.1,55l-0.1-2C45.5,52.5,53,44.6,53,35c0-9.9-8.1-18-18-18c-9.9,0-18,8.1-18,18c0,9.6,7.5,17.5,17.1,18
				l-0.1,2C23.3,54.4,15,45.6,15,35c0-11,9-20,20-20c11,0,20,9,20,20C55,45.6,46.7,54.4,36.1,55z"/>
		</g>
		<g>
			<path class="st0" d="M35,49c-7.3,0-13.4-5.7-14-12.9l2-0.2C23.5,42.1,28.8,47,35,47c6.6,0,12-5.4,12-12c0-6.2-4.9-11.5-11.1-12
				l0.2-2C43.3,21.6,49,27.7,49,35C49,42.7,42.7,49,35,49z"/>
		</g>
		<g>
			<path class="st0" d="M23,34.1l-2-0.2c0.5-6.8,6.1-12.4,12.9-12.9l0.2,2C28.2,23.5,23.5,28.2,23,34.1z"/>
		</g>
		<g>
			<path class="st0" d="M35,43c-4.4,0-8-3.6-8-8s3.6-8,8-8c4,0,7.4,2.9,7.9,6.9l-2,0.3C40.5,31.2,38,29,35,29c-3.3,0-6,2.7-6,6
				s2.7,6,6,6c3,0,5.5-2.2,5.9-5.1l2,0.3C42.4,40.1,39,43,35,43z"/>
		</g>
		<g>
			<rect x="34" y="34" class="st0" width="2" height="2"/>
		</g>
		<g>
			<rect x="54" y="34" class="st0" width="6" height="2"/>
		</g>
		<g>
			<rect x="45" y="43.2" transform="matrix(0.7071 -0.7071 0.7071 0.7071 -19.0542 46.0001)" class="st0" width="2" height="5.7"/>
		</g>
		<g>
			<rect x="23" y="21.2" transform="matrix(0.7071 -0.7071 0.7071 0.7071 -9.9411 24)" class="st0" width="2" height="5.7"/>
		</g>
		<g>
			<rect x="34" y="42" class="st0" width="2" height="6"/>
		</g>
		<g>
			<rect x="34" y="10" class="st0" width="2" height="6"/>
		</g>
		<g>
			<rect x="12.2" y="54" transform="matrix(0.7071 -0.7071 0.7071 0.7071 -34.4975 26.7157)" class="st0" width="5.7" height="2"/>
		</g>
	</g>
</g>
</svg>
