<?xml version="1.0" encoding="utf-8"?>
<!-- Generator: Adobe Illustrator 19.2.1, SVG Export Plug-In . SVG Version: 6.00 Build 0)  -->
<svg version="1.1" id="Layer_1" xmlns="http://www.w3.org/2000/svg" xmlns:xlink="http://www.w3.org/1999/xlink" x="0px" y="0px"
	 viewBox="0 0 513.7 113.2" style="enable-background:new 0 0 513.7 113.2;" xml:space="preserve">
<style type="text/css">
	.st0{fill:#142144;}
	.st1{fill:#B62029;}
	.st2{fill:#346DA5;}
	.st3{fill:#1E4E87;}
	.st4{fill:#2168A3;}
	.st5{fill:#2E477F;}
	.st6{fill:#F05626;}
	.st7{fill:#4284BA;}
	.st8{fill:url(#SVGID_1_);}
	.st9{fill:url(#SVGID_2_);}
	.st10{fill:url(#SVGID_3_);}
	.st11{fill:url(#SVGID_4_);}
	.st12{enable-background:new    ;}
	.st13{fill:#FFFFFF;}
</style>
<title>Asset 1</title>
<g id="Layer_2">
	<g id="Layer_1-2">
		<path class="st0" d="M115,29.6L103.5,9.8L18.9,23.5L5.8,46.3L31,41.8C58.6,37.5,115,29.6,115,29.6z"/>
		<polygon class="st1" points="78.1,45.4 76.3,34.5 16.5,44.3 24.4,54.2 		"/>
		<polygon class="st2" points="114.3,28.4 6,45.8 0,56.6 5.8,67 125.6,48 		"/>
		<polygon class="st3" points="97.8,0 32.2,0 18.8,23.6 103.5,9.9 		"/>
		<polygon class="st4" points="59.2,78 16.1,84.8 26.8,103.3 61.7,97.8 		"/>
		<polygon class="st4" points="82.6,73.4 15.8,84.2 26.9,103.6 111.3,89.9 124.7,66.6 		"/>
		<polygon class="st5" points="26.8,103.3 32.5,113.2 65.4,113.1 64,97.4 		"/>
		<polygon class="st5" points="32.5,113.2 97.8,113.2 111.4,89.7 57,98.5 		"/>
		<polygon class="st6" points="51.8,65.2 53.9,78.7 82.7,74.1 80.5,60.6 		"/>
		<polygon class="st7" points="124.9,47 96.1,51.6 99.3,71.4 124.3,67.3 130.5,56.6 		"/>
		<polygon class="st7" points="108.9,49.6 5.4,66.2 16.1,84.8 124.3,67.4 		"/>
		
			<linearGradient id="SVGID_1_" gradientUnits="userSpaceOnUse" x1="82.34" y1="84.59" x2="36.88" y2="84.59" gradientTransform="matrix(1 0 0 -1 0 113)">
			<stop  offset="0" style="stop-color:#CA2228"/>
			<stop  offset="0.17" style="stop-color:#C42127"/>
			<stop  offset="0.39" style="stop-color:#B31E23"/>
			<stop  offset="0.65" style="stop-color:#96191C"/>
			<stop  offset="0.93" style="stop-color:#6F1314"/>
			<stop  offset="1" style="stop-color:#641111"/>
		</linearGradient>
		<path class="st8" d="M72.5,18.9H45.4c-4.2,0-7.6,3.4-7.6,7.6v11.4c0.1-4.9,4.2-8.8,9.1-8.6h36C82.9,23.6,78.3,18.9,72.5,18.9
			C72.5,18.9,72.5,18.9,72.5,18.9z"/>
		
			<linearGradient id="SVGID_2_" gradientUnits="userSpaceOnUse" x1="82.265" y1="30.24" x2="82.265" y2="93.57" gradientTransform="matrix(1 0 0 -1 0 113)">
			<stop  offset="0" style="stop-color:#F7E346"/>
			<stop  offset="0.19" style="stop-color:#F4DB47"/>
			<stop  offset="0.48" style="stop-color:#ECC748"/>
			<stop  offset="0.83" style="stop-color:#DEA54B"/>
			<stop  offset="1" style="stop-color:#D7924D"/>
		</linearGradient>
		<path class="st9" d="M84.4,18.9H72.5c5.7,0,10.4,4.6,10.4,10.4c0,0,0,0,0,0v56.1c5,0,9.1-4.7,9.1-10.5V26.5
			C92,22.3,88.6,18.9,84.4,18.9L84.4,18.9z"/>
		
			<linearGradient id="SVGID_3_" gradientUnits="userSpaceOnUse" x1="47.565" y1="81.8" x2="47.565" y2="17.76" gradientTransform="matrix(1 0 0 -1 0 113)">
			<stop  offset="0" style="stop-color:#F7E346"/>
			<stop  offset="0.12" style="stop-color:#F5DB45"/>
			<stop  offset="0.3" style="stop-color:#F0C744"/>
			<stop  offset="0.52" style="stop-color:#E7A441"/>
			<stop  offset="0.76" style="stop-color:#DA763D"/>
			<stop  offset="1" style="stop-color:#CD4239"/>
		</linearGradient>
		<path class="st10" d="M46.9,29.3v56.1c0,5.7,4.6,10.4,10.4,10.4c0,0,0,0,0,0H45.4c-4.2,0-7.6-3.4-7.6-7.6V37.9
			C37.9,33,42,29.2,46.9,29.3z"/>
		
			<linearGradient id="SVGID_4_" gradientUnits="userSpaceOnUse" x1="46.9" y1="27.635" x2="92" y2="27.635" gradientTransform="matrix(1 0 0 -1 0 113)">
			<stop  offset="0" style="stop-color:#F7E346"/>
			<stop  offset="0.12" style="stop-color:#F5DB45"/>
			<stop  offset="0.3" style="stop-color:#F0C744"/>
			<stop  offset="0.52" style="stop-color:#E7A441"/>
			<stop  offset="0.76" style="stop-color:#DA763D"/>
			<stop  offset="1" style="stop-color:#CD4239"/>
		</linearGradient>
		<path class="st11" d="M82.9,85.4h-36c0,5.7,4.6,10.4,10.4,10.4c0,0,0,0,0,0h27.1c4.2,0,7.6-3.4,7.6-7.6V74.9
			C92,80.7,87.9,85.4,82.9,85.4z M69.3,92.4h-8.9c-1.1,0-2-0.9-2-2s0.9-2,2-2h8.9c1.1,0,2,0.9,2,2S70.4,92.4,69.3,92.4z"/>
		<g class="st12">
			<path class="st13" d="M154.3,88.5h-2.2l-0.9-2.3h-4l-0.8,2.3h-2.1l3.9-10h2.1L154.3,88.5z M150.6,84.5l-1.4-3.7l-1.4,3.7H150.6z"
				/>
		</g>
		<g class="st12">
			<path class="st13" d="M166,78.5h3.7c0.8,0,1.5,0.1,1.9,0.2c0.6,0.2,1.1,0.5,1.5,0.9s0.7,1,1,1.6c0.2,0.6,0.3,1.4,0.3,2.4
				c0,0.8-0.1,1.5-0.3,2.1c-0.3,0.7-0.6,1.3-1.1,1.8c-0.4,0.3-0.8,0.6-1.4,0.8c-0.4,0.1-1,0.2-1.8,0.2H166V78.5z M168,80.2v6.6h1.5
				c0.6,0,1,0,1.2-0.1c0.3-0.1,0.6-0.2,0.8-0.4s0.4-0.5,0.5-1c0.1-0.4,0.2-1.1,0.2-1.8s-0.1-1.4-0.2-1.8s-0.3-0.7-0.6-1
				s-0.6-0.4-0.9-0.5c-0.3-0.1-0.8-0.1-1.7-0.1H168z"/>
		</g>
		<g class="st12">
			<path class="st13" d="M189.2,88.5l-3.6-10h2.2l2.5,7.4l2.5-7.4h2.1l-3.6,10H189.2z"/>
			<path class="st13" d="M206.1,88.5v-10h7.4v1.7h-5.4v2.2h5v1.7h-5v2.7h5.6v1.7H206.1z"/>
			<path class="st13" d="M225.5,88.5v-10h4.3c1.1,0,1.8,0.1,2.3,0.3c0.5,0.2,0.9,0.5,1.2,1s0.4,1,0.4,1.6c0,0.8-0.2,1.4-0.7,1.9
				c-0.4,0.5-1.1,0.8-2,0.9c0.4,0.3,0.8,0.5,1.1,0.8c0.3,0.3,0.7,0.8,1.2,1.6l1.2,2h-2.4l-1.5-2.2c-0.5-0.8-0.9-1.3-1.1-1.5
				c-0.2-0.2-0.4-0.3-0.6-0.4c-0.2-0.1-0.6-0.1-1-0.1h-0.4v4.2H225.5z M227.6,82.7h1.5c1,0,1.6,0,1.8-0.1s0.4-0.2,0.6-0.4
				s0.2-0.5,0.2-0.8c0-0.3-0.1-0.6-0.3-0.8c-0.2-0.2-0.4-0.3-0.8-0.4c-0.2,0-0.7,0-1.5,0h-1.6V82.7z"/>
			<path class="st13" d="M248,88.5v-8.3h-3v-1.7h8v1.7h-3v8.3H248z"/>
			<path class="st13" d="M264.3,88.5v-10h2v10H264.3z"/>
			<path class="st13" d="M277.8,85.2l2-0.2c0.1,0.7,0.4,1.1,0.7,1.5c0.4,0.3,0.9,0.5,1.5,0.5c0.7,0,1.1-0.1,1.5-0.4
				c0.3-0.3,0.5-0.6,0.5-1c0-0.2-0.1-0.4-0.2-0.6c-0.1-0.2-0.4-0.3-0.7-0.4c-0.2-0.1-0.8-0.2-1.6-0.4c-1.1-0.3-1.8-0.6-2.3-1
				c-0.6-0.6-0.9-1.2-0.9-2c0-0.5,0.1-1,0.4-1.4c0.3-0.4,0.7-0.8,1.3-1c0.5-0.2,1.2-0.3,2-0.3c1.3,0,2.2,0.3,2.8,0.8
				c0.6,0.6,1,1.3,1,2.2l-2,0.1c-0.1-0.5-0.3-0.9-0.6-1.1c-0.3-0.2-0.7-0.3-1.3-0.3c-0.6,0-1,0.1-1.4,0.4c-0.2,0.2-0.3,0.4-0.3,0.6
				c0,0.2,0.1,0.4,0.3,0.6c0.3,0.2,0.9,0.4,1.9,0.7s1.7,0.5,2.2,0.7c0.5,0.2,0.8,0.6,1.1,1c0.3,0.4,0.4,1,0.4,1.6
				c0,0.6-0.2,1.1-0.5,1.6s-0.8,0.9-1.4,1.1c-0.6,0.2-1.3,0.4-2.2,0.4c-1.3,0-2.2-0.3-2.9-0.9C278.3,87.2,277.9,86.4,277.8,85.2z"/>
			<path class="st13" d="M297.7,88.5v-10h2v10H297.7z"/>
			<path class="st13" d="M311.7,88.5v-10h2l4.1,6.7v-6.7h1.9v10h-2l-4-6.5v6.5H311.7z"/>
			<path class="st13" d="M336.6,84.8v-1.7h4.4v4c-0.4,0.4-1,0.8-1.8,1.1c-0.8,0.3-1.6,0.5-2.4,0.5c-1,0-2-0.2-2.7-0.7
				c-0.8-0.4-1.4-1.1-1.8-1.9c-0.4-0.8-0.6-1.7-0.6-2.7c0-1,0.2-2,0.7-2.8s1.1-1.4,1.9-1.9c0.6-0.3,1.4-0.5,2.4-0.5
				c1.2,0,2.2,0.3,2.9,0.8c0.7,0.5,1.1,1.2,1.3,2.2l-2,0.4c-0.1-0.5-0.4-0.9-0.8-1.2c-0.4-0.3-0.9-0.4-1.5-0.4
				c-0.9,0-1.6,0.3-2.1,0.8c-0.5,0.6-0.8,1.4-0.8,2.5c0,1.2,0.3,2.1,0.8,2.7c0.5,0.6,1.2,0.9,2.1,0.9c0.4,0,0.8-0.1,1.3-0.3
				c0.4-0.2,0.8-0.4,1.1-0.6v-1.3H336.6z"/>
			<path class="st13" d="M366.9,88.5v-10h2l4.1,6.7v-6.7h1.9v10h-2l-4-6.5v6.5H366.9z"/>
			<path class="st13" d="M387,88.5v-10h7.4v1.7H389v2.2h5v1.7h-5v2.7h5.6v1.7H387z"/>
			<path class="st13" d="M408.7,88.5v-8.3h-3v-1.7h8v1.7h-3v8.3H408.7z"/>
		</g>
		<g class="st12">
			<path class="st13" d="M429.2,88.5l-2.4-10h2.1l1.5,6.9l1.8-6.9h2.4l1.8,7l1.5-7h2l-2.4,10h-2.1l-2-7.5l-2,7.5H429.2z"/>
		</g>
		<g class="st12">
			<path class="st13" d="M452.3,83.5c0-1,0.2-1.9,0.5-2.6c0.2-0.5,0.5-1,0.9-1.4c0.4-0.4,0.8-0.7,1.3-0.9c0.6-0.3,1.3-0.4,2.2-0.4
				c1.5,0,2.7,0.5,3.5,1.4c0.9,0.9,1.3,2.2,1.3,3.8c0,1.6-0.4,2.9-1.3,3.8c-0.9,0.9-2.1,1.4-3.5,1.4c-1.5,0-2.7-0.5-3.6-1.4
				C452.8,86.4,452.3,85.1,452.3,83.5z M454.4,83.5c0,1.1,0.3,2,0.8,2.6c0.5,0.6,1.2,0.9,2,0.9s1.5-0.3,2-0.9
				c0.5-0.6,0.8-1.5,0.8-2.6c0-1.1-0.3-2-0.8-2.6c-0.5-0.6-1.2-0.8-2-0.8s-1.5,0.3-2,0.9C454.7,81.5,454.4,82.3,454.4,83.5z"/>
			<path class="st13" d="M473.7,88.5v-10h4.3c1.1,0,1.8,0.1,2.3,0.3c0.5,0.2,0.9,0.5,1.2,1s0.4,1,0.4,1.6c0,0.8-0.2,1.4-0.7,1.9
				c-0.4,0.5-1.1,0.8-2,0.9c0.4,0.3,0.8,0.5,1.1,0.8c0.3,0.3,0.7,0.8,1.2,1.6l1.2,2h-2.4l-1.5-2.2c-0.5-0.8-0.9-1.3-1.1-1.5
				c-0.2-0.2-0.4-0.3-0.6-0.4c-0.2-0.1-0.6-0.1-1-0.1h-0.4v4.2H473.7z M475.8,82.7h1.5c1,0,1.6,0,1.8-0.1s0.4-0.2,0.6-0.4
				s0.2-0.5,0.2-0.8c0-0.3-0.1-0.6-0.3-0.8c-0.2-0.2-0.4-0.3-0.8-0.4c-0.2,0-0.7,0-1.5,0h-1.6V82.7z"/>
			<path class="st13" d="M493.9,88.5v-10h2v4.5l4.1-4.5h2.7l-3.8,3.9l4,6.1h-2.6l-2.8-4.7l-1.6,1.7v3H493.9z"/>
		</g>
		<g class="st12">
			<path class="st13" d="M172.7,52l5.1,1.3c-1.1,4.2-3,7.3-5.7,9.5s-6.1,3.3-10.1,3.3c-4.1,0-7.5-0.8-10-2.5
				c-2.6-1.7-4.5-4.1-5.9-7.3c-1.3-3.2-2-6.6-2-10.2c0-4,0.8-7.5,2.3-10.4c1.5-3,3.7-5.2,6.5-6.8c2.8-1.5,5.9-2.3,9.3-2.3
				c3.8,0,7,1,9.6,2.9c2.6,1.9,4.4,4.7,5.4,8.2l-5,1.2c-0.9-2.8-2.2-4.8-3.9-6.1c-1.7-1.3-3.8-1.9-6.4-1.9c-2.9,0-5.4,0.7-7.4,2.1
				c-2,1.4-3.4,3.3-4.2,5.7c-0.8,2.4-1.2,4.8-1.2,7.3c0,3.2,0.5,6.1,1.4,8.5c0.9,2.4,2.4,4.2,4.4,5.4c2,1.2,4.2,1.8,6.5,1.8
				c2.8,0,5.2-0.8,7.2-2.5C170.7,57.6,172,55.2,172.7,52z"/>
		</g>
		<g class="st12">
			<path class="st13" d="M175.8,65.4l14.7-38.2h5.4l15.6,38.2h-5.8l-4.5-11.6h-16l-4.2,11.6H175.8z M186.8,49.7h13l-4-10.6
				c-1.2-3.2-2.1-5.9-2.7-7.9c-0.5,2.5-1.2,4.9-2.1,7.3L186.8,49.7z"/>
		</g>
		<g class="st12">
			<path class="st13" d="M213.5,53.1l4.8-0.4c0.2,1.9,0.8,3.5,1.6,4.7c0.8,1.2,2.1,2.2,3.8,3c1.7,0.8,3.7,1.1,5.9,1.1
				c1.9,0,3.6-0.3,5.1-0.9c1.5-0.6,2.6-1.4,3.3-2.4c0.7-1,1.1-2.1,1.1-3.3c0-1.2-0.3-2.2-1-3.1c-0.7-0.9-1.8-1.6-3.4-2.3
				c-1-0.4-3.3-1-6.8-1.9c-3.5-0.8-6-1.6-7.4-2.4c-1.8-1-3.2-2.1-4.1-3.6c-0.9-1.4-1.3-3-1.3-4.8c0-1.9,0.5-3.7,1.6-5.4
				s2.7-2.9,4.8-3.8c2.1-0.9,4.4-1.3,7-1.3c2.8,0,5.3,0.5,7.5,1.4c2.2,0.9,3.8,2.3,5,4c1.2,1.8,1.8,3.8,1.9,6l-4.8,0.4
				c-0.3-2.4-1.1-4.2-2.6-5.5c-1.5-1.2-3.7-1.9-6.7-1.9c-3.1,0-5.3,0.6-6.7,1.7c-1.4,1.1-2.1,2.5-2.1,4.1c0,1.4,0.5,2.5,1.5,3.4
				c1,0.9,3.5,1.8,7.6,2.7c4.1,0.9,6.9,1.7,8.5,2.4c2.2,1,3.9,2.3,4.9,3.9c1.1,1.6,1.6,3.4,1.6,5.4c0,2-0.6,3.9-1.7,5.7
				c-1.2,1.8-2.8,3.2-5,4.2c-2.2,1-4.6,1.5-7.4,1.5c-3.5,0-6.4-0.5-8.7-1.5s-4.2-2.5-5.5-4.5S213.5,55.7,213.5,53.1z"/>
			<path class="st13" d="M248.3,65.4V27.2h5.1v15.7h19.9V27.2h5.1v38.2h-5.1v-18h-19.9v18H248.3z"/>
		</g>
		<g class="st12">
			<path class="st13" d="M283,46.5c0-3.9,0.6-7.2,1.7-9.8c0.9-1.9,2.1-3.7,3.6-5.2s3.1-2.7,4.9-3.4c2.4-1,5.1-1.5,8.2-1.5
				c5.6,0,10.1,1.7,13.5,5.2c3.4,3.5,5.1,8.3,5.1,14.6c0,6.2-1.7,11-5,14.5c-3.4,3.5-7.8,5.2-13.4,5.2c-5.7,0-10.2-1.7-13.6-5.2
				C284.7,57.4,283,52.6,283,46.5z M291,46.2c0,4.3,1,7.6,3,9.8c2,2.2,4.5,3.3,7.6,3.3c3.1,0,5.6-1.1,7.6-3.3c2-2.2,3-5.5,3-10
				c0-4.4-1-7.6-2.9-9.8s-4.5-3.2-7.7-3.2s-5.7,1.1-7.7,3.3C292,38.6,291,41.9,291,46.2z"/>
			<path class="st13" d="M323.5,65.4V27.2h7.5l15.6,25.5V27.2h7.2v38.2h-7.7l-15.4-24.9v24.9H323.5z"/>
		</g>
		<g class="st12">
			<path class="st13" d="M365.3,65.4V60h5.3v5.3H365.3z"/>
			<path class="st13" d="M376.6,65.4V27.2h7.6l9,27.1c0.8,2.5,1.4,4.4,1.8,5.7c0.4-1.4,1.1-3.4,2-6.1l9.1-26.6h6.8v38.2h-4.9v-32
				l-11.1,32h-4.6l-11.1-32.5v32.5H376.6z"/>
			<path class="st13" d="M417,46.8c0-6.3,1.7-11.3,5.1-14.9c3.4-3.6,7.8-5.4,13.2-5.4c3.5,0,6.7,0.8,9.5,2.5c2.8,1.7,5,4,6.5,7.1
				c1.5,3,2.2,6.4,2.2,10.3c0,3.9-0.8,7.3-2.3,10.4c-1.6,3.1-3.8,5.4-6.6,6.9s-6,2.4-9.3,2.4c-3.6,0-6.8-0.9-9.6-2.6
				c-2.8-1.7-5-4.1-6.4-7.1C417.7,53.3,417,50.1,417,46.8z M422.2,46.8c0,4.6,1.2,8.2,3.7,10.9c2.5,2.7,5.6,4,9.3,4
				c3.8,0,6.9-1.3,9.4-4c2.5-2.7,3.7-6.5,3.7-11.4c0-3.1-0.5-5.8-1.6-8.1c-1.1-2.3-2.6-4.1-4.6-5.4c-2-1.3-4.3-1.9-6.8-1.9
				c-3.6,0-6.7,1.2-9.2,3.7C423.5,37,422.2,41.1,422.2,46.8z"/>
			<path class="st13" d="M457.2,65.4V27.2h14.3c2.9,0,5.3,0.4,7,1.2c1.8,0.8,3.1,2,4.1,3.6c1,1.6,1.5,3.3,1.5,5
				c0,1.6-0.4,3.2-1.3,4.6c-0.9,1.4-2.2,2.6-4,3.5c2.3,0.7,4.1,1.8,5.3,3.5c1.2,1.6,1.9,3.6,1.9,5.8c0,1.8-0.4,3.5-1.1,5
				s-1.7,2.7-2.8,3.6s-2.5,1.5-4.2,1.9s-3.7,0.6-6.2,0.6H457.2z M462.2,43.2h8.3c2.2,0,3.8-0.1,4.8-0.4c1.3-0.4,2.3-1,2.9-1.9
				c0.7-0.9,1-2,1-3.3c0-1.3-0.3-2.4-0.9-3.3s-1.5-1.6-2.6-2c-1.1-0.4-3.1-0.5-5.8-0.5h-7.6V43.2z M462.2,60.9h9.5
				c1.6,0,2.8-0.1,3.4-0.2c1.2-0.2,2.1-0.6,2.9-1c0.8-0.5,1.4-1.2,1.9-2.1c0.5-0.9,0.8-2,0.8-3.2c0-1.4-0.4-2.7-1.1-3.7
				c-0.7-1.1-1.7-1.8-3-2.2c-1.3-0.4-3.2-0.6-5.6-0.6h-8.8V60.9z"/>
			<path class="st13" d="M491.2,65.4V27.2h5.1v38.2H491.2z"/>
		</g>
	</g>
</g>
</svg>
