<svg xmlns="http://www.w3.org/2000/svg" xmlns:xlink="http://www.w3.org/1999/xlink" viewBox="0 0 513.71 113.21"><defs><style>.cls-1{fill:#142144;}.cls-2{fill:#b62029;}.cls-3{fill:#346da5;}.cls-4{fill:#1e4e87;}.cls-5{fill:#2168a3;}.cls-6{fill:#2e477f;}.cls-7{fill:#f05626;}.cls-8{fill:#4284ba;}.cls-9{fill:url(#linear-gradient);}.cls-10{fill:url(#linear-gradient-2);}.cls-11{fill:url(#linear-gradient-3);}.cls-12{fill:url(#linear-gradient-4);}.cls-13{font-size:14px;letter-spacing:0.72em;}.cls-13,.cls-17{fill:#fff;}.cls-13,.cls-20{font-family:Montserrat-SemiBold, Montserrat;font-weight:700;}.cls-14{letter-spacing:0.71em;}.cls-15{letter-spacing:0.72em;}.cls-16{letter-spacing:0.72em;}.cls-17{font-size:53.38px;font-family:Montserrat-Light, Montserrat;letter-spacing:-0.05em;}.cls-18{letter-spacing:-0.06em;}.cls-19,.cls-20{letter-spacing:-0.05em;}</style><linearGradient id="linear-gradient" x1="82.34" y1="28.41" x2="36.88" y2="28.41" gradientUnits="userSpaceOnUse"><stop offset="0" stop-color="#ca2228"/><stop offset="0.17" stop-color="#c42127"/><stop offset="0.39" stop-color="#b31e23"/><stop offset="0.65" stop-color="#96191c"/><stop offset="0.93" stop-color="#6f1314"/><stop offset="1" stop-color="#641111"/></linearGradient><linearGradient id="linear-gradient-2" x1="82.26" y1="82.76" x2="82.26" y2="19.43" gradientUnits="userSpaceOnUse"><stop offset="0" stop-color="#f7e346"/><stop offset="0.19" stop-color="#f4db47"/><stop offset="0.48" stop-color="#ecc748"/><stop offset="0.83" stop-color="#dea54b"/><stop offset="1" stop-color="#d7924d"/></linearGradient><linearGradient id="linear-gradient-3" x1="47.56" y1="31.2" x2="47.56" y2="95.24" gradientUnits="userSpaceOnUse"><stop offset="0" stop-color="#f7e346"/><stop offset="0.12" stop-color="#f5db45"/><stop offset="0.3" stop-color="#f0c744"/><stop offset="0.52" stop-color="#e7a441"/><stop offset="0.76" stop-color="#da763d"/><stop offset="1" stop-color="#cd4239"/></linearGradient><linearGradient id="linear-gradient-4" x1="46.93" y1="85.36" x2="92.02" y2="85.36" xlink:href="#linear-gradient-3"/></defs><title>Asset 1</title><g id="Layer_2" data-name="Layer 2"><g id="Layer_1-2" data-name="Layer 1"><path class="cls-1" d="M115,29.58,103.48,9.79,18.91,23.49,5.77,46.26,31,41.83C58.64,37.5,115,29.58,115,29.58Z"/><polygon class="cls-2" points="78.08 45.4 76.3 34.52 16.52 44.27 24.43 54.22 78.08 45.4"/><polygon class="cls-3" points="114.3 28.39 6 45.85 0 56.59 5.78 66.99 125.56 48.04 114.3 28.39"/><polygon class="cls-4" points="97.83 0 32.15 0 18.82 23.62 103.52 9.86 97.83 0"/><polygon class="cls-5" points="59.15 77.97 16.07 84.79 26.78 103.35 61.7 97.75 59.15 77.97"/><polygon class="cls-5" points="82.55 73.43 15.77 84.21 26.94 103.62 111.3 89.89 124.72 66.64 82.55 73.43"/><polygon class="cls-6" points="26.78 103.35 32.47 113.21 65.41 113.07 64 97.37 26.78 103.35"/><polygon class="cls-6" points="32.47 113.21 97.83 113.21 111.39 89.71 56.96 98.48 32.47 113.21"/><polygon class="cls-7" points="51.8 65.17 53.9 78.7 82.68 74.06 80.51 60.56 51.8 65.17"/><polygon class="cls-8" points="124.95 46.97 96.08 51.62 99.28 71.38 124.31 67.35 130.51 56.6 124.95 46.97"/><polygon class="cls-8" points="108.86 49.57 5.36 66.24 16.07 84.79 124.28 67.36 108.86 49.57"/><path class="cls-9" d="M72.51,18.9H45.41a7.6,7.6,0,0,0-7.6,7.6V37.92a8.88,8.88,0,0,1,9.12-8.63h36A10.38,10.38,0,0,0,72.51,18.9Z"/><path class="cls-10" d="M84.42,18.9H72.51A10.38,10.38,0,0,1,82.9,29.29V85.42c5,0,9.12-4.69,9.12-10.49V26.5A7.6,7.6,0,0,0,84.42,18.9Z"/><path class="cls-11" d="M46.93,29.29V85.42A10.38,10.38,0,0,0,57.32,95.8H45.41a7.6,7.6,0,0,1-7.6-7.6V37.92A8.88,8.88,0,0,1,46.93,29.29Z"/><path class="cls-12" d="M82.9,85.42h-36A10.38,10.38,0,0,0,57.32,95.8h27.1A7.6,7.6,0,0,0,92,88.2V74.93C92,80.72,87.94,85.42,82.9,85.42Zm-13.56,7H60.49a2,2,0,1,1,0-4h8.85a2,2,0,0,1,0,4Z"/><text class="cls-13" transform="translate(144.26 88.49)">A<tspan class="cls-14" x="20.71" y="0">D</tspan><tspan class="cls-15" x="41.41" y="0">VERTISING NET</tspan><tspan class="cls-16" x="282.52" y="0">W</tspan><tspan x="307.48" y="0">ORK</tspan></text><text></text><text class="cls-17" transform="translate(141.3 65.38)">C<tspan class="cls-18" x="34.54" y="0">A</tspan><tspan class="cls-19" x="69.77" y="0">SH</tspan><tspan class="cls-20" x="139.43" y="0">ON</tspan><tspan class="cls-19" x="219.17" y="0">.MOBI</tspan></text><text></text></g></g></svg>