<?xml version="1.0" encoding="utf-8"?>
<!-- Generator: Adobe Illustrator 19.2.1, SVG Export Plug-In . SVG Version: 6.00 Build 0)  -->
<svg version="1.1" id="Layer_1" xmlns="http://www.w3.org/2000/svg" xmlns:xlink="http://www.w3.org/1999/xlink" x="0px" y="0px"
	 viewBox="0 0 70 70" style="enable-background:new 0 0 70 70;" xml:space="preserve">
<style type="text/css">
	.st0{fill:#FFFFFF;}
</style>
<g>
	<g>
		<circle id="XMLID_1944_" class="st0" cx="35" cy="6.7" r="5.4"/>
		<circle id="XMLID_1942_" class="st0" cx="59.7" cy="49.1" r="5.4"/>
		<circle id="XMLID_1940_" class="st0" cx="10.4" cy="49.1" r="5.4"/>
		<path class="st0" d="M66.4,20.9c0-3.7-3-6.7-6.7-6.7c-2,0-3.8,0.9-5,2.3L41.4,8.9c0.2-0.7,0.4-1.4,0.4-2.2C41.7,3,38.7,0,35,0
			c-3.7,0-6.7,3-6.7,6.7c0,0.8,0.1,1.5,0.4,2.1l-13.3,7.7c-1.2-1.4-3-2.3-5-2.3c-3.7,0-6.7,3-6.7,6.7c0,3.2,2.3,5.9,5.3,6.5l0,15
			c-3,0.7-5.3,3.3-5.3,6.5c0,3.7,3,6.7,6.7,6.7c2,0,3.7-0.9,5-2.2l13.3,7.7c-0.2,0.7-0.3,1.3-0.3,2.1c0,3.7,3,6.7,6.7,6.7
			s6.7-3,6.7-6.7c0-0.7-0.1-1.4-0.3-2.1l13.3-7.7c1.2,1.4,3,2.2,5,2.2c3.7,0,6.7-3,6.7-6.7c0-3.2-2.3-6-5.4-6.6v-15
			C64,26.9,66.4,24.2,66.4,20.9z M59.7,16.8c2.3,0,4.1,1.8,4.1,4.1s-1.8,4.1-4.1,4.1s-4.1-1.8-4.1-4.1S57.4,16.8,59.7,16.8z M35,2.6
			c2.3,0,4.1,1.8,4.1,4.1c0,0.7-0.2,1.4-0.5,1.9c0,0,0,0.1-0.1,0.1c0,0,0,0.1,0,0.1c-0.7,1.2-2,2-3.5,2c-2.3,0-4.1-1.8-4.1-4.1
			S32.7,2.6,35,2.6z M6.2,20.9c0-2.3,1.8-4.1,4.1-4.1s4.1,1.8,4.1,4.1s-1.8,4.1-4.1,4.1S6.2,23.2,6.2,20.9z M10.4,53.2
			c-2.3,0-4.1-1.8-4.1-4.1S8.1,45,10.4,45s4.1,1.8,4.1,4.1C14.5,51.3,12.6,53.2,10.4,53.2z M35,67.4c-2.3,0-4.1-1.8-4.1-4.1
			c0-2.3,1.8-4.1,4.1-4.1s4.1,1.8,4.1,4.1S37.3,67.4,35,67.4z M40.1,59c-1.2-1.4-3.1-2.4-5.1-2.4s-3.9,0.9-5.1,2.4l-13.2-7.6
			c0.3-0.7,0.4-1.5,0.4-2.3c0-3.3-2.4-6-5.5-6.6l0-14.9c3.1-0.5,5.5-3.3,5.5-6.6c0-0.8-0.1-1.5-0.4-2.2L30,11.1
			c1.2,1.4,3,2.3,5.1,2.3c2,0,3.8-0.9,5-2.3l13.3,7.7c-0.2,0.7-0.4,1.4-0.4,2.2c0,3.2,2.3,6,5.4,6.6v15c-3.1,0.6-5.4,3.3-5.4,6.6
			c0,0.8,0.1,1.6,0.4,2.3L40.1,59z M63.8,49.1c0,2.3-1.8,4.1-4.1,4.1s-4.1-1.8-4.1-4.1s1.8-4.1,4.1-4.1S63.8,46.8,63.8,49.1z"/>
		<path class="st0" d="M41.3,40.2v-4.7c0.8-0.8,1.2-1.8,1.2-2.9v-6.1c0-3.8-3.1-6.8-6.8-6.8h-1.3c-3.8,0-6.8,3.1-6.8,6.8v6.1
			c0,1.1,0.5,2.2,1.2,2.9v4.7c-1.5,0.8-5.1,2.7-8.4,5.5c-0.6,0.5-0.6,1.3-0.2,1.8s1.3,0.6,1.8,0.2c3.7-3,7.7-5.1,8.5-5.4
			c0.5-0.3,0.9-0.8,0.9-1.4v-5.9c0-0.4-0.2-0.8-0.6-1.1c-0.4-0.3-0.7-0.7-0.7-1.2v-6.1c0-2.3,1.9-4.2,4.2-4.2h1.3
			c2.3,0,4.2,1.9,4.2,4.2v6.1c0,0.5-0.2,0.9-0.7,1.2c-0.4,0.2-0.6,0.6-0.6,1.1v5.9c0,0.6,0.3,1.1,0.9,1.4c0.8,0.4,4.8,2.4,8.5,5.4
			c0.2,0.2,0.5,0.3,0.8,0.3c0.4,0,0.7-0.2,1-0.5c0.5-0.6,0.4-1.4-0.2-1.8C46.3,42.9,42.7,40.9,41.3,40.2z"/>
	</g>
</g>
</svg>
