<?xml version="1.0" encoding="utf-8"?>
<!-- Generator: Adobe Illustrator 19.2.1, SVG Export Plug-In . SVG Version: 6.00 Build 0)  -->
<svg version="1.1" id="Layer_1" xmlns="http://www.w3.org/2000/svg" xmlns:xlink="http://www.w3.org/1999/xlink" x="0px" y="0px"
	 viewBox="0 0 70 70" style="enable-background:new 0 0 70 70;" xml:space="preserve">
<style type="text/css">
	.st0{fill:#FFFFFF;}
</style>
<g>
	<g>
		<g>
			<path class="st0" d="M61,6.8v24.8h9V6.8H61z M67.7,29.4h-4.5V9h4.5V29.4z"/>
			<path class="st0" d="M49.7,18.2c-0.7-0.6-1.5-1.3-2.3-1.8v-0.6h-0.9c-4.4-2.9-9.6-4.5-15-4.5h-1.1v28.2h28.2v-1.1
				c0-2.3-0.3-4.6-0.9-6.8h0.9V11.3h-9V18.2z M32.7,37.3V13.6c3.2,0.1,6.3,0.9,9.2,2.2h-3.5v15.8h9V19.3c0.8,0.7,1.5,1.3,2.3,2.1
				v10.2h5.8c0.5,1.8,0.8,3.7,0.9,5.6H32.7z M45.2,18.1v11.3h-4.5V18.1H45.2z M51.9,13.5h4.5v15.8h-4.5V13.5z"/>
			
				<rect x="7.6" y="38.7" transform="matrix(0.7071 -0.7071 0.7071 0.7071 -23.9253 21.8352)" class="st0" width="13.6" height="2.3"/>
			<path class="st0" d="M13.5,35c0-1.9-1.5-3.4-3.4-3.4S6.8,33.1,6.8,35s1.5,3.4,3.4,3.4S13.5,36.9,13.5,35z M9,35
				c0-0.6,0.5-1.1,1.1-1.1s1.1,0.5,1.1,1.1s-0.5,1.1-1.1,1.1S9,35.6,9,35z"/>
			<path class="st0" d="M19.2,40.6c-1.9,0-3.4,1.5-3.4,3.4c0,1.9,1.5,3.4,3.4,3.4c1.9,0,3.4-1.5,3.4-3.4
				C22.6,42.2,21.1,40.6,19.2,40.6z M19.2,45.2c-0.6,0-1.1-0.5-1.1-1.1c0-0.6,0.5-1.1,1.1-1.1s1.1,0.5,1.1,1.1
				C20.3,44.7,19.8,45.2,19.2,45.2z"/>
			<path class="st0" d="M49.5,58.1c3.1-4.5,4.7-9.7,4.7-15.2v-1.1h-26v-26h-1.1c-1.1,0-2.3,0.1-3.4,0.2V0H0v15.8h14.2l2.2,2.2
				C6.5,22.3,0,32,0,42.9C0,57.8,12.2,70,27.1,70c6.6,0,12.8-2.4,17.7-6.6l3.5,3.5c0.7,0.7,1.6,1,2.5,1c0.9,0,1.8-0.3,2.5-1
				c1.4-1.4,1.4-3.6,0-5L49.5,58.1z M15.1,13.5H2.3V2.3h19.2v17.6L15.1,13.5z M27.1,67.7c-13.7,0-24.8-11.1-24.8-24.8
				c0-10.3,6.4-19.5,15.9-23.2l5.6,5.6v-7c0.8-0.1,1.5-0.2,2.3-0.2V44h25.9c-0.2,4.5-1.6,8.7-4,12.4l-1.8-1.8c0.1-0.5,0.2-1,0.2-1.6
				c0-3.7-3-6.8-6.8-6.8s-6.8,3-6.8,6.8c0,3.7,3,6.8,6.8,6.8c0.5,0,1.1-0.1,1.6-0.2l2.1,2.1C38.7,65.6,33,67.7,27.1,67.7z M44,53.1
				c0,2.5-2,4.5-4.5,4.5s-4.5-2-4.5-4.5c0-2.5,2-4.5,4.5-4.5S44,50.6,44,53.1z M51.7,65.3c-0.5,0.5-1.3,0.5-1.8,0l-6.6-6.6
				c0.7-0.5,1.3-1.1,1.8-1.8l6.6,6.6C52.2,64,52.2,64.8,51.7,65.3z"/>
			<rect x="4.5" y="4.5" class="st0" width="14.7" height="2.3"/>
			<rect x="4.5" y="9" class="st0" width="14.7" height="2.3"/>
			<rect x="38.4" y="51.9" class="st0" width="2.3" height="2.3"/>
			<rect x="28.2" y="51.9" class="st0" width="2.3" height="2.3"/>
			<rect x="23.7" y="51.9" class="st0" width="2.3" height="2.3"/>
			<rect x="19.2" y="51.9" class="st0" width="2.3" height="2.3"/>
		</g>
	</g>
</g>
</svg>
