<?xml version="1.0" encoding="utf-8"?>
<!-- Generator: Adobe Illustrator 21.0.0, SVG Export Plug-In . SVG Version: 6.00 Build 0)  -->
<svg version="1.1" id="Capa_1" xmlns="http://www.w3.org/2000/svg" xmlns:xlink="http://www.w3.org/1999/xlink" x="0px" y="0px"
	 viewBox="0 0 512 512" style="enable-background:new 0 0 512 512;" xml:space="preserve">
<style type="text/css">
	.st0{fill:#FFFFFF;}
</style>
<g>
	<path class="st0" d="M487.7,289c1.4-10.4,2.2-21,2.2-31.7c0-129.2-105.3-233.9-235.1-233.9c-12.9,0-25.6,1.1-37.9,3.1
		c-22.1-14.4-48.3-22.8-76.6-22.8C62.8,3.7,0,66.5,0,144c0,28.2,8.3,54.4,22.6,76.4c-1.9,12-2.9,24.3-2.9,36.9
		c0,129.2,105.2,233.9,235.1,233.9c14.7,0,28.9-1.4,42.8-3.9c21.5,13.4,46.9,21.1,74.1,21.1c77.5,0,140.3-62.8,140.3-140.3
		C512,338.7,503,311.5,487.7,289z M276.7,429.6c-74.7,3.9-109.7-12.6-141.7-42.7c-35.8-33.6-21.4-71.9,7.7-73.8
		c29.1-1.9,46.6,33,62.2,42.7c15.5,9.7,74.6,31.8,105.8-3.9c34-38.8-22.6-58.9-64.1-65c-59.2-8.8-133.9-40.8-128.1-103.9
		c5.8-63.1,53.6-95.4,103.8-100c64.1-5.8,105.8,9.7,138.8,37.9c38.1,32.5,17.5,68.9-6.8,71.8c-24.2,2.9-51.4-53.5-104.8-54.4
		c-55-0.9-92.2,57.3-24.3,73.8c68,16.5,140.7,23.3,167,85.4C418.5,359.7,351.5,425.7,276.7,429.6z"/>
</g>
</svg>
